<svg width="24" height="24" viewBox="0 0 24 24" fill="none" xmlns="http://www.w3.org/2000/svg">
<path d="M6.5 11C4 11 2 9 2 6.5C2 4 4 2 6.5 2C9 2 11 4 11 6.5C11 9 9 11 6.5 11ZM6.5 4C5.1 4 4 5.1 4 6.5C4 7.9 5.1 9 6.5 9C7.9 9 9 7.9 9 6.5C9 5.1 7.9 4 6.5 4Z" fill="#666666"/>
<path d="M22 11H13V2H22V11ZM15 9H20V4H15V9Z" fill="#666666"/>
<path d="M22.7 22H12.2L17.4 13L22.7 22ZM15.7 20H19.2L17.4 17L15.7 20Z" fill="#666666"/>
<path d="M9.10001 22H3.89999L1.29999 17.5L3.89999 13H9.10001L11.7 17.5L9.10001 22ZM5.10001 20H8L9.39999 17.5L8 15H5.10001L3.70001 17.5L5.10001 20Z" fill="#666666"/>
</svg>
