<svg width="24" height="24" viewBox="0 0 24 24" fill="none" xmlns="http://www.w3.org/2000/svg">
<path d="M22 22L16.7 19H11C9.70001 19 8.40001 18.5 7.50001 17.5C7.10001 17.1 7.10001 16.5 7.50001 16.1C7.90001 15.7 8.50001 15.7 8.90001 16.1C9.40001 16.7 10.2 17 11 17H17.3L20 18.6V12C20 11.2 19.7 10.4 19.1 9.89995C18.7 9.49995 18.7 8.89995 19.1 8.49995C19.5 8.09995 20.1 8.09995 20.5 8.49995C21.5 9.39995 22 10.7 22 12V22Z" fill="#666666"/>
<path d="M2 18V6C2 4.3 3.3 3 5 3H15C16.7 3 18 4.3 18 6V12C18 13.7 16.7 15 15 15H7.3L2 18ZM5 5C4.4 5 4 5.4 4 6V14.6L6.7 13H15C15.6 13 16 12.6 16 12V6C16 5.4 15.6 5 15 5H5Z" fill="#666666"/>
</svg>
