<svg width="24" height="24" viewBox="0 0 24 24" fill="none" xmlns="http://www.w3.org/2000/svg">
<path d="M12 12C9.2 12 7 9.8 7 7C7 4.2 9.2 2 12 2C14.8 2 17 4.2 17 7C17 9.8 14.8 12 12 12ZM12 4C10.3 4 9 5.3 9 7C9 8.7 10.3 10 12 10C13.7 10 15 8.7 15 7C15 5.3 13.7 4 12 4Z" fill="#666666"/>
<path d="M18 22C17.4 22 17 21.6 17 21C17 18.2 14.8 16 12 16C9.2 16 7 18.2 7 21C7 21.6 6.6 22 6 22C5.4 22 5 21.6 5 21C5 17.1 8.1 14 12 14C15.9 14 19 17.1 19 21C19 21.6 18.6 22 18 22Z" fill="#666666"/>
<path d="M18 22C17.4 22 17 21.6 17 21C17 18.2 14.8 16 12 16C9.2 16 7 18.2 7 21C7 21.6 6.6 22 6 22C5.4 22 5 21.6 5 21C5 17.1 8.1 14 12 14C15.9 14 19 17.1 19 21C19 21.6 18.6 22 18 22Z" fill="#666666"/>
</svg>
